<svg xmlns="http://www.w3.org/2000/svg" viewBox="0 0 64 64" role="img" aria-labelledby="title">
  <title id="title">OpenWrt</title>
  <defs>
    <linearGradient id="bg" x1="0" y1="0" x2="1" y2="1">
      <stop offset="0" stop-color="#080b12"/>
      <stop offset="1" stop-color="#0a2b2b"/>
    </linearGradient>
    <linearGradient id="accent" x1="14" y1="16" x2="50" y2="48" gradientUnits="userSpaceOnUse">
      <stop offset="0" stop-color="#61f2c2"/>
      <stop offset="1" stop-color="#69b5ff"/>
    </linearGradient>
  </defs>
  <rect width="64" height="64" rx="14" fill="url(#bg)"/>
  <path d="M19 24h26a8 8 0 0 1 8 8v5a8 8 0 0 1-8 8H19a8 8 0 0 1-8-8v-5a8 8 0 0 1 8-8Z" fill="#11151e" stroke="#2a3447" stroke-width="2"/>
  <path d="M21 23c3-4 7-6 11-6s8 2 11 6" fill="none" stroke="url(#accent)" stroke-width="4" stroke-linecap="round"/>
  <path d="M25 29h14M25 36h8" stroke="url(#accent)" stroke-width="4" stroke-linecap="round"/>
  <circle cx="44" cy="35" r="4" fill="#61f2c2"/>
</svg>
